# xmcd CD database file generated by OrangeCD 6.4
#
# Track frame offsets:
#	150
#	27181
#	50261
#	68522
#	80621
#	117649
#	141120
#
# Disc length: 2409 seconds
#
# Revision: 0
# Processed by: cddbd v1.5.2PL0 Copyright (c) Steve Scherf et al.
# Submitted via: OrangeCD 6.4
#
DISCID=59096707
DTITLE=Magda Piskorczyk and Slidin' Slim - Live at Satyrblues
DYEAR=2010
DGENRE=
TTITLE0=You Can't Judge a Book
TTITLE1=Driftin' Blues
TTITLE2=Braggin'
TTITLE3=Married Woman Blues
TTITLE4=Papa Come Quick
TTITLE5=Brand New Face
TTITLE6=The Cocomo Medley
EXTD=
EXTT0=
EXTT1=
EXTT2=
EXTT3=
EXTT4=
EXTT5=
EXTT6=
PLAYORDER=
